<svg width="518" height="475" viewBox="0 0 518 475" fill="none" xmlns="http://www.w3.org/2000/svg">
<path d="M39 110C39 108.895 39.8954 108 41 108H101C102.105 108 103 108.895 103 110V338C103 339.105 102.105 340 101 340H41C39.8954 340 39 339.105 39 338V110Z" fill="#FFB23F"/>
<rect x="80" y="120" width="23" height="221" rx="2" fill="#0D4293"/>
<path fill-rule="evenodd" clip-rule="evenodd" d="M57 122C57 120.895 57.8954 120 59 120H78C79.1046 120 80 120.895 80 122V231H103V341H80V339C80 340.105 79.1046 341 78 341H59C57.8954 341 57 340.105 57 339V122Z" fill="#005AE6"/>
<path d="M133 15C133 13.8954 133.895 13 135 13H154C155.105 13 156 13.8954 156 15V339C156 340.105 155.105 341 154 341H135C133.895 341 133 340.105 133 339V15Z" fill="#005AE6"/>
<path d="M358 91C358 89.8954 358.895 89 360 89H426C427.105 89 428 89.8954 428 91V125C428 126.105 427.105 127 426 127H360C358.895 127 358 126.105 358 125V91Z" fill="#0D4293"/>
<path d="M358 110C358 108.895 358.895 108 360 108H426C427.105 108 428 108.895 428 110V339C428 340.105 427.105 341 426 341H360C358.895 341 358 340.105 358 339V110Z" fill="#005AE6"/>
<path d="M120 226C120 224.895 120.895 224 122 224H131C132.105 224 133 224.895 133 226V339C133 340.105 132.105 341 131 341H122C120.895 341 120 340.105 120 339V226Z" fill="#005AE6"/>
<g filter="url(#filter0_d_41_302)">
<path d="M267 27C267 19.268 273.268 13 281 13H414C421.732 13 428 19.268 428 27V60C428 67.732 421.732 74 414 74H281C273.268 74 267 67.732 267 60V27Z" fill="#FFB23F"/>
<path d="M173.191 293.867C173.191 286.135 179.459 279.867 187.191 279.867H253.367C261.099 279.867 267.367 286.135 267.367 293.867V326.762C267.367 334.494 261.099 340.762 253.367 340.762H187.191C179.459 340.762 173.191 334.494 173.191 326.762V293.867Z" fill="#FFB23F"/>
<path d="M307.208 13H251.683C208.322 13 173.159 48.1279 173.116 91.4887L173.079 128.329C173.035 171.862 208.398 207.132 251.931 206.974L315.37 206.744C335.646 206.671 352.138 223.059 352.191 243.335C352.245 263.602 335.831 280.06 315.564 280.06H259.302C230.583 280.06 217.811 316.155 240.138 334.219C245.561 338.606 252.326 341 259.302 341H337.527C380.949 341 416.137 305.776 416.094 262.354L416.057 225.915C416.014 182.554 380.851 147.426 337.49 147.426H274.001C253.71 147.426 237.26 130.978 237.258 110.687C237.256 90.3928 253.707 73.9399 274.001 73.9399H307.208C338.095 73.9399 349.381 33.2759 322.911 17.3579C318.17 14.5065 312.741 13 307.208 13Z" fill="#FFB23F"/>
</g>
<path d="M428 41H258C240.5 42.5 206.1 59.3 208.5 114.5C207.667 135.333 218.9 177 270.5 177H332C349 178.167 382.5 191.9 380.5 237.5C383.667 260.833 375.9 307.9 319.5 309.5H173.192" stroke="#D78F22"/>
<path d="M77.3646 390.452C77.111 387.663 75.9825 385.495 73.9791 383.948C72.0011 382.375 69.1736 381.589 65.4965 381.589C63.062 381.589 61.0333 381.906 59.4103 382.54C57.7873 383.174 56.57 384.049 55.7586 385.165C54.9471 386.255 54.5286 387.511 54.5033 388.931C54.4526 390.097 54.6808 391.124 55.188 392.012C55.7205 392.9 56.4813 393.686 57.4703 394.37C58.4847 395.03 59.7019 395.613 61.122 396.12C62.5421 396.627 64.1398 397.071 65.9149 397.451L72.6097 398.973C76.4643 399.81 79.8625 400.926 82.8041 402.32C85.7712 403.715 88.2564 405.376 90.2597 407.304C92.2885 409.231 93.8227 411.45 94.8624 413.96C95.9022 416.471 96.4347 419.286 96.4601 422.405C96.4347 427.325 95.1921 431.547 92.7323 435.072C90.2724 438.597 86.7348 441.298 82.1194 443.174C77.5294 445.051 71.9884 445.989 65.4965 445.989C58.9792 445.989 53.2987 445.013 48.4551 443.06C43.6115 441.107 39.8457 438.14 37.1576 434.159C34.4695 430.178 33.0874 425.144 33.0113 419.058H51.0417C51.1939 421.568 51.8659 423.66 53.0578 425.334C54.2497 427.008 55.8853 428.276 57.9648 429.138C60.0696 430 62.5041 430.431 65.2683 430.431C67.8042 430.431 69.9597 430.089 71.7348 429.404C73.5354 428.719 74.9174 427.768 75.8811 426.551C76.8447 425.334 77.3392 423.939 77.3646 422.367C77.3392 420.896 76.8828 419.641 75.9952 418.601C75.1076 417.536 73.7382 416.623 71.887 415.862C70.0611 415.076 67.7281 414.353 64.8879 413.694L56.7476 411.792C50.002 410.245 44.6893 407.747 40.8093 404.298C36.9293 400.824 35.002 396.133 35.0274 390.224C35.002 385.406 36.2954 381.184 38.9074 377.557C41.5194 373.931 45.133 371.103 49.7484 369.075C54.3638 367.046 59.6258 366.031 65.5345 366.031C71.57 366.031 76.8067 367.058 81.2446 369.113C85.7078 371.141 89.1693 373.994 91.6291 377.671C94.089 381.348 95.3443 385.609 95.395 390.452H77.3646ZM122.441 445.989C118.713 445.989 115.403 445.368 112.512 444.125C109.647 442.857 107.377 440.955 105.704 438.419C104.055 435.858 103.231 432.65 103.231 428.795C103.231 425.549 103.802 422.811 104.943 420.579C106.084 418.347 107.656 416.534 109.66 415.14C111.663 413.745 113.971 412.692 116.583 411.982C119.195 411.247 121.984 410.752 124.951 410.499C128.273 410.194 130.949 409.878 132.977 409.548C135.006 409.193 136.477 408.698 137.39 408.064C138.328 407.405 138.797 406.479 138.797 405.287V405.097C138.797 403.145 138.125 401.636 136.781 400.571C135.437 399.506 133.624 398.973 131.342 398.973C128.882 398.973 126.904 399.506 125.408 400.571C123.911 401.636 122.96 403.107 122.555 404.983L105.399 404.375C105.906 400.824 107.212 397.654 109.317 394.865C111.447 392.05 114.364 389.844 118.066 388.246C121.794 386.623 126.27 385.812 131.494 385.812C135.222 385.812 138.658 386.255 141.802 387.143C144.947 388.005 147.686 389.273 150.019 390.947C152.352 392.595 154.152 394.624 155.42 397.033C156.714 399.442 157.36 402.194 157.36 405.287V445H139.862V436.86H139.406C138.366 438.838 137.035 440.511 135.412 441.881C133.814 443.25 131.925 444.277 129.744 444.962C127.588 445.647 125.154 445.989 122.441 445.989ZM128.184 433.817C130.188 433.817 131.988 433.411 133.586 432.599C135.209 431.788 136.502 430.672 137.466 429.252C138.43 427.806 138.911 426.133 138.911 424.231V418.677C138.379 418.956 137.732 419.21 136.971 419.438C136.236 419.666 135.424 419.882 134.537 420.085C133.649 420.287 132.736 420.465 131.798 420.617C130.86 420.769 129.96 420.909 129.097 421.036C127.348 421.315 125.851 421.746 124.609 422.329C123.392 422.912 122.453 423.673 121.794 424.611C121.16 425.524 120.843 426.615 120.843 427.883C120.843 429.81 121.528 431.281 122.897 432.295C124.292 433.309 126.054 433.817 128.184 433.817ZM168.734 445V386.572H186.422V397.299H187.069C188.286 393.749 190.34 390.947 193.231 388.893C196.122 386.839 199.571 385.812 203.577 385.812C207.635 385.812 211.109 386.851 214 388.931C216.891 391.01 218.729 393.8 219.516 397.299H220.124C221.215 393.825 223.345 391.048 226.515 388.969C229.685 386.864 233.425 385.812 237.736 385.812C243.265 385.812 247.753 387.587 251.202 391.137C254.651 394.662 256.375 399.506 256.375 405.668V445H237.774V409.928C237.774 407.012 237.026 404.793 235.53 403.271C234.034 401.725 232.094 400.951 229.71 400.951C227.149 400.951 225.133 401.788 223.662 403.462C222.216 405.11 221.494 407.329 221.494 410.118V445H203.615V409.738C203.615 407.025 202.88 404.882 201.409 403.309C199.938 401.737 197.998 400.951 195.589 400.951C193.966 400.951 192.533 401.344 191.291 402.13C190.048 402.891 189.072 403.981 188.362 405.402C187.677 406.822 187.335 408.495 187.335 410.423V445H168.734ZM267.901 445V367.097H300.082C305.914 367.097 310.948 368.149 315.183 370.254C319.444 372.333 322.728 375.326 325.035 379.231C327.343 383.111 328.497 387.714 328.497 393.039C328.497 398.44 327.318 403.031 324.959 406.809C322.601 410.562 319.253 413.428 314.917 415.406C310.581 417.358 305.445 418.335 299.511 418.335H279.16V403.5H296.012C298.852 403.5 301.223 403.132 303.125 402.397C305.052 401.636 306.51 400.495 307.499 398.973C308.488 397.426 308.983 395.448 308.983 393.039C308.983 390.63 308.488 388.639 307.499 387.067C306.51 385.469 305.052 384.277 303.125 383.491C301.198 382.68 298.827 382.274 296.012 382.274H286.73V445H267.901ZM311.76 409.396L331.159 445H310.619L291.599 409.396H311.76ZM364.986 446.103C358.874 446.103 353.599 444.899 349.161 442.489C344.749 440.055 341.351 436.593 338.967 432.105C336.609 427.591 335.429 422.227 335.429 416.014C335.429 409.979 336.621 404.704 339.005 400.19C341.389 395.651 344.749 392.126 349.085 389.615C353.422 387.08 358.532 385.812 364.415 385.812C368.574 385.812 372.378 386.458 375.827 387.752C379.275 389.045 382.255 390.96 384.766 393.495C387.276 396.031 389.229 399.163 390.624 402.891C392.018 406.593 392.716 410.841 392.716 415.634V420.275H341.934V409.472H375.408C375.383 407.494 374.914 405.731 374.001 404.184C373.088 402.637 371.833 401.433 370.235 400.571C368.663 399.683 366.849 399.239 364.795 399.239C362.716 399.239 360.852 399.708 359.204 400.647C357.555 401.56 356.249 402.815 355.286 404.413C354.322 405.985 353.815 407.773 353.764 409.776V420.769C353.764 423.153 354.233 425.245 355.172 427.046C356.11 428.821 357.441 430.203 359.166 431.192C360.89 432.181 362.944 432.675 365.328 432.675C366.976 432.675 368.472 432.447 369.816 431.991C371.16 431.534 372.314 430.862 373.278 429.975C374.242 429.087 374.964 427.997 375.446 426.703L392.526 427.198C391.816 431.027 390.256 434.362 387.847 437.202C385.463 440.017 382.331 442.21 378.451 443.783C374.571 445.33 370.083 446.103 364.986 446.103ZM402.216 445V386.572H420.817V445H402.216ZM411.535 379.763C408.924 379.763 406.679 378.901 404.803 377.177C402.926 375.427 401.988 373.322 401.988 370.862C401.988 368.428 402.926 366.348 404.803 364.624C406.679 362.874 408.924 361.999 411.535 361.999C414.173 361.999 416.417 362.874 418.268 364.624C420.145 366.348 421.083 368.428 421.083 370.862C421.083 373.322 420.145 375.427 418.268 377.177C416.417 378.901 414.173 379.763 411.535 379.763ZM483.667 404.413L466.587 404.869C466.41 403.652 465.928 402.574 465.142 401.636C464.356 400.672 463.329 399.924 462.061 399.391C460.818 398.834 459.372 398.555 457.724 398.555C455.569 398.555 453.73 398.986 452.208 399.848C450.712 400.71 449.977 401.877 450.002 403.348C449.977 404.489 450.433 405.478 451.372 406.315C452.335 407.151 454.047 407.823 456.507 408.331L467.766 410.461C473.599 411.577 477.935 413.428 480.776 416.014C483.641 418.601 485.087 422.025 485.112 426.285C485.087 430.292 483.895 433.779 481.536 436.746C479.203 439.713 476.008 442.02 471.951 443.669C467.893 445.292 463.252 446.103 458.028 446.103C449.685 446.103 443.105 444.391 438.286 440.968C433.493 437.519 430.755 432.904 430.07 427.122L448.443 426.665C448.848 428.795 449.901 430.418 451.6 431.534C453.299 432.65 455.467 433.208 458.105 433.208C460.488 433.208 462.428 432.764 463.924 431.877C465.421 430.989 466.181 429.81 466.207 428.339C466.181 427.02 465.598 425.968 464.457 425.182C463.316 424.37 461.528 423.736 459.094 423.28L448.899 421.34C443.041 420.275 438.679 418.309 435.814 415.444C432.948 412.553 431.528 408.876 431.553 404.413C431.528 400.507 432.568 397.173 434.673 394.408C436.777 391.619 439.77 389.489 443.65 388.018C447.53 386.547 452.107 385.812 457.382 385.812C465.294 385.812 471.532 387.473 476.097 390.795C480.662 394.091 483.185 398.631 483.667 404.413Z" fill="#005AE6"/>
<defs>
<filter id="filter0_d_41_302" x="156.279" y="0.200001" width="288.521" height="361.6" filterUnits="userSpaceOnUse" color-interpolation-filters="sRGB">
<feFlood flood-opacity="0" result="BackgroundImageFix"/>
<feColorMatrix in="SourceAlpha" type="matrix" values="0 0 0 0 0 0 0 0 0 0 0 0 0 0 0 0 0 0 127 0" result="hardAlpha"/>
<feOffset dy="4"/>
<feGaussianBlur stdDeviation="8.4"/>
<feComposite in2="hardAlpha" operator="out"/>
<feColorMatrix type="matrix" values="0 0 0 0 0.195 0 0 0 0 0.128006 0 0 0 0 0.02795 0 0 0 1 0"/>
<feBlend mode="normal" in2="BackgroundImageFix" result="effect1_dropShadow_41_302"/>
<feBlend mode="normal" in="SourceGraphic" in2="effect1_dropShadow_41_302" result="shape"/>
</filter>
</defs>
</svg>
